<mxfile host="app.diagrams.net" modified="2023-04-12T17:49:13.511Z" agent="Mozilla/5.0 (Macintosh; Intel Mac OS X 10_15_7) AppleWebKit/605.1.15 (KHTML, like Gecko) Version/16.4 Safari/605.1.15" version="21.1.6" etag="CZr0__mJ-JNy4hv_Ze8S" type="github">
  <diagram name="Page-1" id="RFDrriPvYQ3ZYSndPyuh">
    <mxGraphModel>
      <root>
        <mxCell id="0" />
        <mxCell id="1" parent="0" />
      </root>
    </mxGraphModel>
  </diagram>
</mxfile>
